<svg xmlns="http://www.w3.org/2000/svg" viewBox="0 0 1600 950" preserveAspectRatio="xMidYMid slice">
  <defs>
    <linearGradient id="sky" x1="0" y1="0" x2="0" y2="1">
      <stop offset="0" stop-color="#70dcff"/>
      <stop offset="0.55" stop-color="#c8f7ff"/>
      <stop offset="1" stop-color="#fff1c8"/>
    </linearGradient>
    <linearGradient id="sea" x1="0" y1="0" x2="1" y2="0">
      <stop stop-color="#01a8cc"/>
      <stop offset="0.55" stop-color="#1cd2df"/>
      <stop offset="1" stop-color="#047a9c"/>
    </linearGradient>
    <linearGradient id="sand" x1="0" y1="0" x2="0" y2="1">
      <stop stop-color="#ffe29c"/>
      <stop offset="1" stop-color="#ffc673"/>
    </linearGradient>
    <filter id="blur" x="-20%" y="-20%" width="140%" height="140%">
      <feGaussianBlur stdDeviation="12"/>
    </filter>
  </defs>
  <rect width="1600" height="950" fill="url(#sky)"/>
  <circle cx="1200" cy="190" r="112" fill="#ffbd3a"/>
  <circle cx="1200" cy="190" r="166" fill="#ffbd3a" opacity=".22" filter="url(#blur)"/>
  <path d="M0 466 C260 416 410 510 670 464 C910 421 1140 450 1600 392 L1600 950 L0 950Z" fill="url(#sea)"/>
  <path d="M0 610 C260 552 455 658 720 606 C1010 548 1230 620 1600 540 L1600 950 L0 950Z" fill="#e7fbff" opacity=".75"/>
  <path d="M0 655 C340 595 550 710 820 660 C1090 610 1300 700 1600 620 L1600 950 L0 950Z" fill="url(#sand)"/>
  <path d="M0 590 C180 560 280 610 420 590" stroke="#fff" stroke-width="12" stroke-linecap="round" opacity=".7"/>
  <path d="M760 510 C930 478 1030 530 1180 500" stroke="#fff" stroke-width="10" stroke-linecap="round" opacity=".55"/>
  <path d="M1060 645 C1180 560 1250 420 1215 285" stroke="#7b4a2f" stroke-width="20" stroke-linecap="round" fill="none"/>
  <path d="M1210 290 C1138 214 1045 201 955 230 C1030 280 1118 297 1210 290Z" fill="#14a86d"/>
  <path d="M1224 282 C1260 180 1355 128 1468 130 C1422 220 1345 278 1224 282Z" fill="#10bd7b"/>
  <path d="M1220 292 C1310 250 1414 260 1504 322 C1402 368 1308 354 1220 292Z" fill="#099e66"/>
  <path d="M1210 302 C1120 320 1040 380 990 470 C1102 460 1185 405 1210 302Z" fill="#0abf76"/>
  <ellipse cx="1150" cy="736" rx="190" ry="35" fill="#885439" opacity=".18"/>
</svg>
