<svg xmlns="http://www.w3.org/2000/svg" viewBox="0 0 900 680">
  <defs><linearGradient id="g" x1="0" y1="0" x2="0" y2="1"><stop stop-color="#8ce9ff"/><stop offset="1" stop-color="#fff0bf"/></linearGradient><linearGradient id="w" x1="0" y1="0" x2="1" y2="1"><stop stop-color="#ff7b72"/><stop offset="1" stop-color="#ffc05d"/></linearGradient></defs>
  <rect width="900" height="680" fill="url(#g)"/>
  <circle cx="710" cy="110" r="72" fill="#ffb72b"/>
  <path d="M0 390 C190 345 280 420 430 380 C610 330 730 380 900 330 L900 680 L0 680Z" fill="#08b5d5"/>
  <path d="M0 470 C180 430 340 520 520 465 C690 413 760 500 900 450 L900 680 L0 680Z" fill="#ffe1a1"/>
  <rect x="220" y="190" width="390" height="250" rx="24" fill="#ffffff"/>
  <rect x="260" y="230" width="62" height="70" rx="12" fill="#beeefa"/><rect x="355" y="230" width="62" height="70" rx="12" fill="#beeefa"/><rect x="450" y="230" width="62" height="70" rx="12" fill="#beeefa"/>
  <rect x="320" y="335" width="190" height="105" rx="20" fill="url(#w)"/>
  <path d="M185 190 L415 80 L650 190Z" fill="#06313f"/>
  <rect x="620" y="320" width="70" height="150" rx="35" fill="#7b4a2f"/>
  <path d="M650 320 C570 240 480 230 395 260 C480 318 565 340 650 320Z" fill="#12aa70"/>
  <path d="M668 315 C710 210 810 160 900 178 C850 270 775 318 668 315Z" fill="#0cc284"/>
</svg>
